<?xml version="1.0" encoding="UTF-8" standalone="no"?>
<!-- Created with Inkscape (http://www.inkscape.org/) -->

<svg
   xmlns:dc="http://purl.org/dc/elements/1.1/"
   xmlns:cc="http://creativecommons.org/ns#"
   xmlns:rdf="http://www.w3.org/1999/02/22-rdf-syntax-ns#"
   xmlns:svg="http://www.w3.org/2000/svg"
   xmlns="http://www.w3.org/2000/svg"
   xmlns:sodipodi="http://sodipodi.sourceforge.net/DTD/sodipodi-0.dtd"
   xmlns:inkscape="http://www.inkscape.org/namespaces/inkscape"
   width="210mm"
   height="297mm"
   viewBox="0 0 210 297"
   version="1.1"
   id="svg163"
   inkscape:version="0.92.3 (2405546, 2018-03-11)"
   sodipodi:docname="favicon.svg">
  <defs
     id="defs157" />
  <sodipodi:namedview
     id="base"
     pagecolor="#ffffff"
     bordercolor="#666666"
     borderopacity="1.0"
     inkscape:pageopacity="0.0"
     inkscape:pageshadow="2"
     inkscape:zoom="0.98994949"
     inkscape:cx="239.09771"
     inkscape:cy="680.36106"
     inkscape:document-units="mm"
     inkscape:current-layer="layer1"
     showgrid="false"
     inkscape:window-width="1920"
     inkscape:window-height="997"
     inkscape:window-x="0"
     inkscape:window-y="28"
     inkscape:window-maximized="1" />
  <metadata
     id="metadata160">
    <rdf:RDF>
      <cc:Work
         rdf:about="">
        <dc:format>image/svg+xml</dc:format>
        <dc:type
           rdf:resource="http://purl.org/dc/dcmitype/StillImage" />
        <dc:title></dc:title>
      </cc:Work>
    </rdf:RDF>
  </metadata>
  <g
     inkscape:label="Layer 1"
     inkscape:groupmode="layer"
     id="layer1">
    <g
       transform="matrix(7.567764,0,0,7.4168454,40.871802,-11.27601)"
       id="g103">
      <path
         inkscape:connector-curvature="0"
         d="M 13,4 12,6.934 11,4 C 10.812,3.447 11.106,2.848 11.659,2.659 12.211,2.471 12.812,2.766 13,3.318 13.078,3.548 13.072,3.787 13,4 Z M 4,11 6.934,12 4,13 C 3.447,13.188 2.848,12.894 2.659,12.341 2.471,11.789 2.766,11.188 3.318,11 3.548,10.922 3.787,10.928 4,11 Z m 7,9 1,-2.934 1,2.934 c 0.188,0.553 -0.106,1.152 -0.659,1.341 C 11.789,21.529 11.189,21.235 11,20.682 10.922,20.452 10.928,20.213 11,20 Z m 9,-7.002 -2.934,-1 2.934,-1 c 0.553,-0.188 1.152,0.106 1.341,0.659 0.188,0.552 -0.106,1.152 -0.659,1.341 -0.23,0.078 -0.469,0.072 -0.682,0 z M 7.05,5.636 8.417,8.417 5.636,7.05 C 5.112,6.793 4.896,6.159 5.153,5.636 5.411,5.113 6.044,4.897 6.567,5.154 6.785,5.261 6.95,5.434 7.05,5.636 Z M 5.636,16.949 8.417,15.582 7.05,18.363 C 6.793,18.886 6.159,19.102 5.636,18.845 5.113,18.587 4.897,17.954 5.154,17.431 5.261,17.213 5.434,17.049 5.636,16.949 Z m 11.313,1.414 -1.367,-2.781 2.781,1.367 c 0.523,0.257 0.739,0.891 0.482,1.414 -0.258,0.523 -0.891,0.739 -1.414,0.482 -0.218,-0.107 -0.382,-0.28 -0.482,-0.482 z M 18.362,7.048 15.58,8.416 16.948,5.634 c 0.257,-0.523 0.891,-0.739 1.414,-0.482 0.523,0.258 0.739,0.891 0.481,1.415 -0.106,0.217 -0.279,0.381 -0.481,0.481 z M 12,16.5 C 9.519,16.5 7.5,14.481 7.5,12 7.5,9.519 9.519,7.5 12,7.5 c 2.481,0 4.5,2.019 4.5,4.5 0,2.481 -2.019,4.5 -4.5,4.5 z m 0,-7 c -1.379,0 -2.5,1.121 -2.5,2.5 0,1.379 1.121,2.5 2.5,2.5 1.379,0 2.5,-1.121 2.5,-2.5 0,-1.379 -1.121,-2.5 -2.5,-2.5 z"
         id="path101"
         style="fill:#f87c7a;fill-opacity:1" />
    </g>
    <path
       inkscape:connector-curvature="0"
       d="m 124.17105,153.09927 -18.63269,-3.73171 11.24635,-2.93788 c 4.04202,-1.06091 6.446,-5.11904 5.36154,-9.08816 -1.07685,-3.95435 -5.22503,-6.30614 -9.2898,-5.24524 l -11.43594,2.98989 c 0.28059,-1.71384 0.53843,-3.44244 0.53843,-5.23781 0,-1.79539 -0.25784,-3.53141 -0.53843,-5.24517 l 11.45111,2.99724 1.97171,0.25224 c 3.34433,0 6.41566,-2.18858 7.31809,-5.49741 1.08445,-3.95427 -1.31953,-8.02725 -5.36154,-9.08815 l -11.24635,-2.94531 18.61752,-3.72429 c 1.63805,-0.32643 3.18508,-1.15734 4.37569,-2.47049 2.92724,-3.23464 2.63148,-8.175634 -0.67493,-11.039334 -3.30641,-2.863695 -8.35703,-2.574359 -11.28427,0.66028 L 103.97616,107.651 106.99439,96.678436 c 1.09203,-3.95427 -1.31194,-8.027256 -5.35395,-9.095578 -4.026856,-1.053486 -8.205368,1.283475 -9.297397,5.237748 l -3.086489,11.254474 c -2.775563,-2.21824 -5.846889,-4.03587 -9.244304,-5.319354 l 8.357037,-8.175627 c 2.965148,-2.900796 2.965148,-7.589541 0,-10.490336 -2.965155,-2.900789 -7.757941,-2.900789 -10.723104,0 l -8.235689,8.056929 6.013726,-17.649564 c 0.523267,-1.550552 0.568763,-3.271738 0,-4.948409 -1.395363,-4.095236 -5.922726,-6.313488 -10.108822,-4.940992 -4.186104,1.365082 -6.445993,5.786746 -5.058208,9.889401 l 6.013726,17.649564 -8.235689,-8.056929 c -2.965156,-2.900789 -7.757941,-2.900789 -10.723097,0 -2.965148,2.900795 -2.965148,7.58954 0,10.490336 l 8.357038,8.175627 c -3.389838,1.283484 -6.468741,3.108524 -9.244304,5.319354 L 43.353538,92.835446 c -1.084437,-3.961695 -5.285711,-6.320904 -9.282215,-5.252588 -4.049608,1.060904 -6.453579,5.119038 -5.369134,9.080738 l 3.003074,11.017074 -12.6038,-13.925284 c -1.107201,-1.2167 -2.616319,-2.11438 -4.383274,-2.47049 -4.322601,-0.868015 -8.5466227,1.85472 -9.4338967,6.0835 -0.887267,4.228774 1.903467,8.368524 6.2336517,9.236534 l 18.609949,3.73171 -11.223608,2.93789 c -4.042015,1.0609 -6.445985,5.12646 -5.361541,9.08815 0.902437,3.31625 3.966178,5.49741 7.318089,5.49741 l 1.971719,-0.25224 11.435934,-2.99724 c -0.295748,1.71377 -0.553593,3.44978 -0.553593,5.23775 0,1.79537 0.257845,3.52397 0.53843,5.24523 l -11.435942,-2.99731 c -4.03443,-1.05348 -8.197778,1.28347 -9.289807,5.24524 -1.09203,3.95428 1.319533,8.02725 5.361548,9.08816 l 11.246348,2.9453 -18.617526,3.72429 c -1.6380367,0.32643 -3.1850737,1.15735 -4.3756887,2.47791 -2.934815,3.23465 -2.631482,8.17563 0.674933,11.03191 3.3064147,2.87112 8.3646147,2.57436 11.2842747,-0.66028 l 12.626548,-13.9327 -3.018237,11.00965 c -1.09203,3.95428 1.311941,8.02725 5.361549,9.08816 l 1.971711,0.25224 c 3.344333,0 6.408067,-2.18116 7.318089,-5.4974 l 3.078904,-11.23965 c 2.775563,2.21084 5.846889,4.03589 9.251889,5.31194 l -8.3722,8.17563 c -2.965156,2.89337 -2.965156,7.58953 0,10.49033 2.965155,2.90079 7.757941,2.90079 10.723089,0 l 5.353963,-5.24517 h 1.911044 l -5.050622,14.83039 c -0.523259,1.55055 -0.568763,3.27174 0,4.94841 1.39537,4.09524 5.922734,6.31349 10.10883,4.94098 4.193674,-1.36507 6.453563,-5.78674 5.0582,-9.88939 l -5.050622,-14.83039 h 1.911044 l 5.361541,5.24517 c 1.486378,1.44669 3.420178,2.17374 5.361556,2.17374 1.941378,0 3.882755,-0.72705 5.361548,-2.17374 2.965148,-2.89337 2.965148,-7.58954 0,-10.49033 l -8.357037,-8.18305 c 3.397415,-1.27605 6.476319,-3.1011 9.251889,-5.31935 l 3.078904,11.25448 c 0.910022,3.31624 3.966178,5.4974 7.318098,5.4974 l 1.971709,-0.25224 c 4.04202,-1.06091 6.45357,-5.12646 5.36154,-9.08816 l -3.01065,-10.97998 12.6038,13.90303 c 1.10719,1.22412 2.61631,2.11439 4.37569,2.47049 4.3226,0.86802 8.55421,-1.86214 9.43389,-6.09092 0.88727,-4.22877 -1.90346,-8.3611 -6.22607,-9.22911 z m -56.330341,-4.70359 c -10.457667,0 -18.958786,-8.31658 -18.958786,-18.54732 0,-10.23067 8.501119,-18.54726 18.958786,-18.54726 10.457667,0 18.958785,8.31659 18.958785,18.54726 0,10.23074 -8.501118,18.54732 -18.958785,18.54732 z"
       id="path91"
       style="stroke-width:7.50075769;fill:#4aa6fc;fill-opacity:1" />
  </g>
</svg>
