<?xml version="1.0" standalone="no"?>
<!DOCTYPE svg PUBLIC "-//W3C//DTD SVG 20010904//EN"
 "http://www.w3.org/TR/2001/REC-SVG-20010904/DTD/svg10.dtd">
<svg version="1.0" xmlns="http://www.w3.org/2000/svg"
 width="1024.000000pt" height="1024.000000pt" viewBox="0 0 1024.000000 1024.000000"
 preserveAspectRatio="xMidYMid meet">
<metadata>
Created by potrace 1.11, written by Peter Selinger 2001-2013
</metadata>
<g transform="translate(0.000000,1024.000000) scale(0.100000,-0.100000)"
fill="#000000" stroke="none">
<path d="M6440 10029 c-156 -54 -270 -214 -271 -381 -1 -72 2 -82 217 -703 53
-154 116 -340 141 -413 39 -114 55 -145 59 -114 0 4 4 14 7 22 3 8 92 272 197
586 175 522 191 577 191 640 0 38 -5 84 -10 102 -28 94 -109 181 -223 240 -67
34 -80 37 -163 38 -66 2 -105 -3 -145 -17z"/>
<path d="M8728 9101 c-76 -19 -156 -68 -198 -121 -29 -36 -110 -195 -339 -664
-62 -126 -141 -286 -176 -357 -35 -71 -59 -129 -53 -129 5 0 31 11 57 24 25
14 273 137 551 275 278 137 519 262 536 278 96 87 145 243 123 385 -35 219
-274 366 -501 309z"/>
<path d="M4188 9095 c-246 -62 -365 -389 -221 -610 57 -88 68 -94 1036 -570
98 -48 180 -85 182 -83 4 4 -34 84 -320 663 -237 479 -251 502 -351 561 -80
47 -226 65 -326 39z"/>
<path d="M6439 8176 c-2 -2 -33 -6 -69 -10 -257 -25 -509 -117 -733 -267 -51
-34 -94 -65 -97 -68 -3 -3 -27 -24 -55 -46 -68 -55 -192 -181 -263 -268 -192
-234 -323 -533 -357 -813 -3 -27 -8 -65 -11 -84 -11 -83 -5 -324 11 -425 2
-16 7 -46 10 -65 3 -19 12 -62 19 -95 16 -68 14 -75 -19 -75 -40 0 -127 -38
-175 -76 -25 -19 -61 -59 -81 -88 -37 -55 -42 -70 -145 -456 -57 -214 -68
-244 -82 -225 -35 49 -382 255 -430 255 -7 0 -12 4 -12 9 0 5 104 113 231 240
242 243 268 278 287 382 20 105 -11 224 -78 306 -22 26 -38 48 -37 49 1 0 52
18 112 39 61 21 121 42 135 47 21 8 0 18 -150 70 -96 33 -206 70 -245 83 -38
13 -169 57 -289 99 -121 42 -220 76 -222 76 -1 0 4 21 12 48 58 190 29 315
-99 435 -147 136 -335 154 -497 45 -106 -71 -179 -200 -184 -327 -2 -53 5 -88
41 -195 l43 -131 -21 -60 c-61 -173 17 -390 171 -476 32 -18 40 -30 63 -101
l26 -81 -232 230 c-144 142 -247 236 -272 248 -113 52 -233 54 -337 7 -200
-91 -279 -323 -178 -522 14 -29 106 -129 251 -275 126 -126 229 -233 229 -237
0 -4 -6 -8 -14 -8 -40 0 -289 -143 -414 -238 -18 -14 -34 -23 -36 -21 -3 3
-37 135 -51 193 -2 10 -9 33 -15 51 -6 18 -13 42 -15 55 -2 12 -12 48 -21 79
-9 31 -18 64 -19 73 -22 111 -69 226 -114 274 -29 32 -101 84 -136 99 -189 79
-404 -4 -496 -191 -40 -81 -48 -164 -24 -254 9 -36 18 -72 20 -82 2 -9 24 -96
50 -195 26 -98 48 -185 50 -194 2 -9 8 -34 14 -55 6 -21 9 -39 8 -41 -2 -1
-37 37 -79 85 -42 48 -86 98 -98 112 -12 14 -31 36 -43 50 -33 38 -148 170
-179 205 -300 342 -314 355 -406 381 -147 43 -358 -24 -448 -143 -56 -73 -77
-144 -78 -258 -1 -94 1 -104 31 -160 71 -133 165 -198 338 -231 22 -4 45 -8
50 -10 28 -6 504 -104 580 -120 158 -31 247 -53 235 -57 -8 -3 -139 -40 -290
-82 -151 -41 -299 -88 -328 -103 -115 -58 -202 -194 -208 -324 -10 -214 174
-406 377 -393 63 4 47 1 259 55 91 23 172 43 180 45 8 2 64 15 123 30 59 15
110 25 113 22 3 -2 0 -33 -6 -68 -20 -116 -18 -284 5 -419 l7 -39 -34 10 c-18
6 -69 19 -113 30 -97 24 -71 17 -295 74 -201 52 -259 59 -329 40 -198 -52
-320 -239 -281 -432 16 -81 44 -135 102 -198 64 -71 139 -105 318 -149 8 -2
65 -18 125 -35 61 -17 128 -36 150 -42 133 -38 142 -41 130 -45 -8 -2 -454
-93 -539 -110 -10 -2 -85 -17 -167 -34 -158 -34 -153 -33 -214 -45 -66 -12
-165 -65 -212 -112 -25 -24 -59 -74 -76 -111 -29 -62 -32 -75 -32 -168 0 -92
3 -105 32 -165 56 -113 165 -201 282 -228 134 -30 296 21 387 121 57 64 156
176 280 318 60 69 111 127 114 130 3 3 48 55 100 115 52 61 105 121 118 135
27 28 28 36 -7 -95 -119 -446 -129 -490 -127 -566 1 -63 7 -86 34 -142 61
-122 156 -193 295 -216 86 -15 136 -8 212 29 61 30 155 112 155 137 0 7 3 13
8 13 13 0 39 79 92 275 28 105 62 229 76 277 13 48 24 94 24 102 0 23 6 21 79
-33 93 -69 191 -127 299 -179 51 -24 92 -46 90 -48 -2 -2 -105 -106 -229 -231
-140 -142 -235 -245 -249 -273 -114 -220 2 -482 241 -545 61 -16 174 -11 229
11 72 28 116 64 265 213 l140 141 47 0 c27 0 48 -3 48 -7 0 -5 -61 -190 -137
-413 -132 -392 -136 -408 -137 -490 0 -72 4 -94 27 -145 57 -124 212 -233 345
-243 282 -20 501 263 413 533 -10 33 -65 202 -121 375 -56 173 -108 332 -116
353 l-14 37 47 0 47 0 160 -159 c193 -190 247 -222 376 -226 207 -5 394 189
384 400 -7 137 -31 173 -296 438 -125 126 -228 233 -228 238 0 5 5 9 12 9 30
0 214 100 326 177 79 54 124 79 127 71 2 -7 20 -71 39 -143 19 -71 43 -157 51
-190 9 -33 21 -76 26 -95 5 -19 12 -46 15 -59 34 -158 109 -264 227 -321 78
-38 136 -45 224 -26 92 19 132 38 193 92 101 91 149 225 127 354 -3 19 -40
156 -82 304 -41 148 -74 271 -72 273 3 2 22 -18 43 -44 21 -26 46 -55 54 -64
21 -22 149 -165 196 -219 21 -25 41 -47 44 -50 13 -13 101 -112 150 -169 216
-250 265 -285 407 -288 179 -4 336 83 400 224 49 106 53 243 10 336 -33 72
-114 159 -180 192 -42 20 -186 59 -297 79 -14 2 -61 12 -105 21 -161 34 -608
125 -611 125 -2 0 -4 4 -4 9 0 5 10 11 23 14 12 3 48 12 80 21 31 9 81 22 110
30 415 114 414 113 486 181 197 184 144 506 -102 624 -89 42 -160 46 -287 14
-52 -13 -103 -26 -113 -28 -10 -2 -27 -7 -37 -10 -10 -3 -27 -7 -37 -9 -10 -2
-90 -23 -178 -45 -89 -23 -167 -41 -173 -41 -13 0 -13 4 5 115 6 42 5 274 -2
305 -3 14 -8 44 -12 68 l-6 43 27 -11 c15 -5 37 -12 49 -14 19 -4 120 -29 464
-116 119 -30 165 -33 233 -16 177 46 291 201 287 390 -2 97 -31 169 -98 241
-62 67 -105 88 -274 135 -82 23 -195 55 -250 70 -55 16 -127 36 -160 45 l-60
18 280 58 280 57 66 -28 c68 -30 117 -51 134 -56 44 -15 237 -65 265 -68 19
-3 55 -8 80 -12 59 -10 347 -11 430 -2 56 6 122 17 195 32 153 32 348 115 500
212 403 258 702 681 785 1112 74 379 30 771 -121 1087 -112 236 -290 461 -490
621 -41 32 -76 62 -79 65 -14 17 -164 107 -249 149 -146 73 -296 119 -501 155
-39 7 -375 17 -381 11z m323 -786 c180 -33 343 -121 486 -262 140 -138 239
-320 267 -488 4 -25 9 -54 11 -65 6 -26 5 -214 0 -240 -2 -11 -7 -41 -10 -67
-34 -250 -235 -523 -488 -663 -55 -30 -231 -97 -248 -95 -3 1 -27 -2 -55 -6
-67 -9 -231 -13 -242 -5 -4 3 -16 23 -25 44 -22 46 -89 120 -143 157 -86 59
-222 81 -330 54 -43 -12 -52 -11 -70 4 -120 99 -249 315 -280 469 -22 109 -27
277 -12 382 10 70 59 219 93 279 105 189 277 350 467 436 65 30 213 70 292 79
54 6 222 -1 287 -13z m-3272 -1385 c-41 -41 -75 -73 -77 -72 -3 4 34 107 40
113 5 5 87 32 102 33 5 1 -24 -33 -65 -74z m1900 -815 c0 -6 -23 -33 -115
-136 -37 -41 -76 -86 -87 -100 -11 -14 -22 -23 -24 -21 -4 3 17 82 77 292 11
39 22 76 25 84 3 10 24 -6 64 -49 33 -36 60 -67 60 -70z m-1856 -485 c154 -32
286 -96 406 -196 l59 -49 -29 -50 c-41 -69 -60 -142 -60 -228 0 -112 29 -189
99 -266 57 -62 185 -126 254 -126 l30 0 -6 -87 c-8 -114 -14 -143 -43 -231
-51 -152 -118 -259 -244 -384 -178 -177 -387 -266 -639 -272 -240 -6 -444 61
-626 208 -157 125 -267 281 -323 456 -71 223 -50 506 52 708 140 276 426 486
716 527 25 4 46 8 47 9 9 9 243 -5 307 -19z"/>
<path d="M9625 6830 c-49 -16 -175 -59 -280 -95 -104 -37 -197 -69 -205 -71
-8 -2 -100 -33 -205 -70 -104 -36 -238 -82 -297 -102 -60 -20 -108 -39 -108
-42 0 -5 73 -31 355 -125 61 -21 119 -41 130 -46 18 -8 597 -207 620 -213 6
-2 17 -6 25 -9 33 -14 124 -24 173 -20 113 8 243 105 298 222 97 204 31 428
-159 540 -112 66 -210 75 -347 31z"/>
<path d="M7985 5003 c19 -38 115 -232 213 -433 98 -201 205 -419 238 -485 107
-219 223 -298 428 -292 132 5 229 59 305 172 110 162 87 396 -51 521 -28 25
-202 116 -547 286 -278 137 -528 260 -554 273 -27 14 -53 25 -58 25 -5 0 7
-30 26 -67z"/>
<path d="M6553 4442 c-12 -37 -48 -143 -81 -237 -32 -93 -78 -224 -100 -290
-23 -66 -77 -225 -121 -354 -45 -130 -83 -259 -87 -292 l-6 -59 408 2 409 3
-2 60 c-2 48 -41 177 -199 645 -108 322 -197 586 -198 587 -1 1 -12 -28 -23
-65z"/>
</g>
</svg>
